HIERARCHY
ROOT hip
{
  OFFSET 5.70873 43.8894 -1.52928
  CHANNELS 6 Xposition Yposition Zposition Zrotation Xrotation Yrotation
  JOINT abdomen
  {
    OFFSET 0 5.99393 0.287273
    CHANNELS 6 Xposition Yposition Zposition Zrotation Xrotation Yrotation
    JOINT chest
    {
      OFFSET 0 6.65865 -0.856112
      CHANNELS 6 Xposition Yposition Zposition Zrotation Xrotation Yrotation
      JOINT neck
      {
        OFFSET 0 8.65624 -1.42685
        CHANNELS 6 Xposition Yposition Zposition Zrotation Xrotation Yrotation
        JOINT head
        {
          OFFSET 0 3.80999 -0.190247
          CHANNELS 6 Xposition Yposition Zposition Zrotation Xrotation Yrotation
          End Site
          {
            OFFSET 0 0 0
          }
        }
      }
      JOINT rCollar
      {
        OFFSET -1.4963 7.5744 -1.52136
        CHANNELS 6 Xposition Yposition Zposition Zrotation Xrotation Yrotation
        JOINT rShldr
        {
          OFFSET -5.47506 -0.905672 0.485692
          CHANNELS 6 Xposition Yposition Zposition Zrotation Xrotation Yrotation
          JOINT rForeArm
          {
            OFFSET -11.3069 -0.201091 0.618544
            CHANNELS 6 Xposition Yposition Zposition Zrotation Xrotation Yrotation
            JOINT rHand
            {
              OFFSET -9.61414 -0.254739 3.48553
              CHANNELS 6 Xposition Yposition Zposition Zrotation Xrotation Yrotation
              JOINT rThumb1
              {
                OFFSET 0.176263 -0.07068 1.26622
                CHANNELS 6 Xposition Yposition Zposition Zrotation Xrotation Yrotation
                JOINT rThumb2
                {
                  OFFSET -1.04683 -0.546484 1.82182
                  CHANNELS 6 Xposition Yposition Zposition Zrotation Xrotation Yrotation
                  JOINT rThumb3
                  {
                    OFFSET -0.993472 -0.621916 0.655506
                    CHANNELS 6 Xposition Yposition Zposition Zrotation Xrotation Yrotation
                    End Site
                    {
                      OFFSET -0.996134 -0.66263 0.644615
                    }
                  }
                }
              }
              JOINT rIndex1
              {
                OFFSET -2.64253 0.566363 2.4162
                CHANNELS 6 Xposition Yposition Zposition Zrotation Xrotation Yrotation
                JOINT rIndex2
                {
                  OFFSET -1.39394 -0.635138 0.899356
                  CHANNELS 6 Xposition Yposition Zposition Zrotation Xrotation Yrotation
                  JOINT rIndex3
                  {
                    OFFSET -0.622395 -0.856016 0.402182
                    CHANNELS 6 Xposition Yposition Zposition Zrotation Xrotation Yrotation
                    End Site
                    {
                      OFFSET -0.472476 -0.801802 0.34216
                    }
                  }
                }
              }
              JOINT rMid1
              {
                OFFSET -3.20814 0.514427 1.52547
                CHANNELS 6 Xposition Yposition Zposition Zrotation Xrotation Yrotation
                JOINT rMid2
                {
                  OFFSET -1.56545 -0.497974 0.68919
                  CHANNELS 6 Xposition Yposition Zposition Zrotation Xrotation Yrotation
                  JOINT rMid3
                  {
                    OFFSET -0.679943 -1.17582 0.444246
                    CHANNELS 6 Xposition Yposition Zposition Zrotation Xrotation Yrotation
                    End Site
                    {
                      OFFSET -0.343874 -0.941341 0.267611
                    }
                  }
                }
              }
              JOINT rRing1
              {
                OFFSET -3.47877 0.200518 0.597719
                CHANNELS 6 Xposition Yposition Zposition Zrotation Xrotation Yrotation
                JOINT rRing2
                {
                  OFFSET -1.28208 -0.53155 0.44672
                  CHANNELS 6 Xposition Yposition Zposition Zrotation Xrotation Yrotation
                  JOINT rRing3
                  {
                    OFFSET -0.710288 -0.970167 0.4032
                    CHANNELS 6 Xposition Yposition Zposition Zrotation Xrotation Yrotation
                    End Site
                    {
                      OFFSET -0.403228 -0.950952 0.378354
                    }
                  }
                }
              }
              JOINT rPinky1
              {
                OFFSET -3.42483 -0.278904 -0.240415
                CHANNELS 6 Xposition Yposition Zposition Zrotation Xrotation Yrotation
                JOINT rPinky2
                {
                  OFFSET -1.05787 -0.635999 0.156459
                  CHANNELS 6 Xposition Yposition Zposition Zrotation Xrotation Yrotation
                  JOINT rPinky3
                  {
                    OFFSET -0.42815 -0.754232 0.287187
                    CHANNELS 6 Xposition Yposition Zposition Zrotation Xrotation Yrotation
                    End Site
                    {
                      OFFSET -0.235717 -0.725605 0.279416
                    }
                  }
                }
              }
            }
          }
        }
      }
      JOINT lCollar
      {
        OFFSET 1.4963 7.5744 -1.52136
        CHANNELS 6 Xposition Yposition Zposition Zrotation Xrotation Yrotation
        JOINT lShldr
        {
          OFFSET 5.47506 -0.905672 0.485692
          CHANNELS 6 Xposition Yposition Zposition Zrotation Xrotation Yrotation
          JOINT lForeArm
          {
            OFFSET 11.3069 -0.201091 0.618544
            CHANNELS 6 Xposition Yposition Zposition Zrotation Xrotation Yrotation
            JOINT lHand
            {
              OFFSET 9.61414 -0.254739 3.48553
              CHANNELS 6 Xposition Yposition Zposition Zrotation Xrotation Yrotation
              JOINT lThumb1
              {
                OFFSET -0.176263 -0.07068 1.26622
                CHANNELS 6 Xposition Yposition Zposition Zrotation Xrotation Yrotation
                JOINT lThumb2
                {
                  OFFSET 1.04683 -0.546484 1.82182
                  CHANNELS 6 Xposition Yposition Zposition Zrotation Xrotation Yrotation
                  JOINT lThumb3
                  {
                    OFFSET 0.993472 -0.621916 0.655506
                    CHANNELS 6 Xposition Yposition Zposition Zrotation Xrotation Yrotation
                    End Site
                    {
                      OFFSET 0.996134 -0.66263 0.644615
                    }
                  }
                }
              }
              JOINT lIndex1
              {
                OFFSET 2.64253 0.566363 2.4162
                CHANNELS 6 Xposition Yposition Zposition Zrotation Xrotation Yrotation
                JOINT lIndex2
                {
                  OFFSET 1.39394 -0.635138 0.899356
                  CHANNELS 6 Xposition Yposition Zposition Zrotation Xrotation Yrotation
                  JOINT lIndex3
                  {
                    OFFSET 0.622395 -0.856016 0.402182
                    CHANNELS 6 Xposition Yposition Zposition Zrotation Xrotation Yrotation
                    End Site
                    {
                      OFFSET 0.472476 -0.801802 0.34216
                    }
                  }
                }
              }
              JOINT lMid1
              {
                OFFSET 3.20814 0.514427 1.52547
                CHANNELS 6 Xposition Yposition Zposition Zrotation Xrotation Yrotation
                JOINT lMid2
                {
                  OFFSET 1.56545 -0.497974 0.68919
                  CHANNELS 6 Xposition Yposition Zposition Zrotation Xrotation Yrotation
                  JOINT lMid3
                  {
                    OFFSET 0.679943 -1.17582 0.444246
                    CHANNELS 6 Xposition Yposition Zposition Zrotation Xrotation Yrotation
                    End Site
                    {
                      OFFSET 0.343874 -0.941341 0.267611
                    }
                  }
                }
              }
              JOINT lRing1
              {
                OFFSET 3.47877 0.200518 0.597719
                CHANNELS 6 Xposition Yposition Zposition Zrotation Xrotation Yrotation
                JOINT lRing2
                {
                  OFFSET 1.28208 -0.53155 0.44672
                  CHANNELS 6 Xposition Yposition Zposition Zrotation Xrotation Yrotation
                  JOINT lRing3
                  {
                    OFFSET 0.710288 -0.970167 0.4032
                    CHANNELS 6 Xposition Yposition Zposition Zrotation Xrotation Yrotation
                    End Site
                    {
                      OFFSET 0.403228 -0.950952 0.378354
                    }
                  }
                }
              }
              JOINT lPinky1
              {
                OFFSET 3.42483 -0.278904 -0.240415
                CHANNELS 6 Xposition Yposition Zposition Zrotation Xrotation Yrotation
                JOINT lPinky2
                {
                  OFFSET 1.05787 -0.635999 0.156459
                  CHANNELS 6 Xposition Yposition Zposition Zrotation Xrotation Yrotation
                  JOINT lPinky3
                  {
                    OFFSET 0.42815 -0.754232 0.287187
                    CHANNELS 6 Xposition Yposition Zposition Zrotation Xrotation Yrotation
                    End Site
                    {
                      OFFSET 0.235717 -0.725605 0.279416
                    }
                  }
                }
              }
            }
          }
        }
      }
    }
  }
  JOINT rThigh
  {
    OFFSET -4.17848 -1.02486 0.046356
    CHANNELS 6 Xposition Yposition Zposition Zrotation Xrotation Yrotation
    JOINT rShin
    {
      OFFSET 1.27155 -17.465 -0.237699
      CHANNELS 6 Xposition Yposition Zposition Zrotation Xrotation Yrotation
      JOINT rFoot
      {
        OFFSET 0.529163 -17.3815 -1.19582
        CHANNELS 6 Xposition Yposition Zposition Zrotation Xrotation Yrotation
        JOINT rToe
        {
          OFFSET -0.711591 -4.4863 4.0596
          CHANNELS 6 Xposition Yposition Zposition Zrotation Xrotation Yrotation
          End Site
          {
            OFFSET -0.869915 -1.10655 1.99006
          }
        }
      }
    }
  }
  JOINT lThigh
  {
    OFFSET 4.17848 -1.02486 0.046356
    CHANNELS 6 Xposition Yposition Zposition Zrotation Xrotation Yrotation
    JOINT lShin
    {
      OFFSET -1.27155 -17.465 -0.237699
      CHANNELS 6 Xposition Yposition Zposition Zrotation Xrotation Yrotation
      JOINT lFoot
      {
        OFFSET -0.529163 -17.3815 -1.19582
        CHANNELS 6 Xposition Yposition Zposition Zrotation Xrotation Yrotation
        JOINT lToe
        {
          OFFSET 0.711591 -4.4863 4.0596
          CHANNELS 6 Xposition Yposition Zposition Zrotation Xrotation Yrotation
          End Site
          {
            OFFSET 0.869915 -1.10655 1.99006
          }
        }
      }
    }
  }
}
MOTION
Frames:	4
Frame Time:	0.0333333
-16.8266 62.4726 -9.22614 -5.70157 -28.0471 27.2718 -3.55271e-015 5.99393 0.287273 -0.552481 8.20775 -7.41533 0 6.65865 -0.856112 -0.0172024 16.4174 -14.9847 7.10543e-015 8.65624 -1.42685 0.419552 8.27916 11.2857 0 3.80999 -0.190247 12.1906 1.03821 16.5832 -1.4963 7.5744 -1.52136 0.636915 0.106751 -5.92518 -5.47506 -0.905672 0.485692 52.0362 4.357 44.7006 -11.3069 -0.201091 0.618544 69.0832 17.4049 91.0277 -9.61414 -0.254739 3.48553 -25.2908 3.90709 15.8995 0.176263 -0.07068 1.26622 -15.6873 50.412 18.5118 -1.04683 -0.546484 1.82182 -0.515844 0.557666 -1.56015 -0.993472 -0.621916 0.655506 -4.32707 5.93882 -14.9479 -2.64253 0.566363 2.4162 -23.6213 5.47126 -14.5208 -1.39394 -0.635138 0.899356 39.8962 7.70352 -8.81726 -0.622395 -0.856016 0.402182 45.8626 8.24912 -10.4911 -3.20814 0.514427 1.52547 -0.840544 5.94951 -9.82409 -1.56545 -0.497974 0.68919 52.741 10.5331 -13.0891 -0.679943 -1.17582 0.444246 44.4809 9.78109 -10.5176 -3.47877 0.200518 0.597719 16.3706 -0.644945 -5.84596 -1.28208 -0.53155 0.44672 37.8362 9.71784 -10.3213 -0.710288 -0.970167 0.4032 39.1355 9.91094 -10.7658 -3.42483 -0.278904 -0.240415 24.5433 -1.90445 -2.2637 -1.05787 -0.635999 0.156459 31.0685 9.47909 -7.89246 -0.42815 -0.754232 0.287187 30.9983 9.4635 -7.86996 1.4963 7.5744 -1.52136 8.6376 -1.8405 -19.5369 5.47506 -0.905672 0.485692 -51.3594 -1.12039 -17.8923 11.3069 -0.201091 0.618544 -36.5206 32.8651 -75.795 9.61414 -0.254739 3.48553 -40.3452 -29.3862 0.889193 -0.176263 -0.07068 1.26622 24.2782 38.4818 -35.502 1.04683 -0.546484 1.82182 -6.53389 -1.24615 -11.4581 0.993472 -0.621916 0.655506 6.45119 2.66722 11.8094 2.64253 0.566363 2.4162 -5.18975 4.48312 12.5249 1.39394 -0.635138 0.899356 -36.9452 6.74322 17.0314 0.622395 -0.856016 0.402182 -38.0065 6.76612 17.5559 3.20814 0.514427 1.52547 -1.48521 -0.683625 1.67106 1.56545 -0.497974 0.68919 -44.4869 8.35704 21.4002 0.679943 -1.17582 0.444246 -9.36098 3.1991 3.99162 3.47877 0.200518 0.597719 -8.07662 -2.63753 5.99023 1.28208 -0.53155 0.44672 -14.781 5.15024 7.29473 0.710288 -0.970167 0.4032 -16.2802 5.55293 8.08473 3.42483 -0.278904 -0.240415 11.7678 -11.303 2.60138 1.05787 -0.635999 0.156459 -18.8959 6.82266 9.38291 0.42815 -0.754232 0.287187 -9.1883 3.76104 4.34942 -4.17848 -1.02486 0.046356 -6.93098 -68.4402 -39.8765 1.27155 -17.465 -0.237699 25.53 63.0771 -17.735 0.529163 -17.3815 -1.19582 13.3799 11.3489 -10.8732 -0.711591 -4.4863 4.0596 1.9738 13.8174 -0.611769 4.17848 -1.02486 0.046356 23.3699 -61.2172 22.3967 -1.27155 -17.465 -0.237699 153.454 81.7466 -157.723 -0.529163 -17.3815 -1.19582 -2.93404 26.8504 -12.5829 0.711591 -4.4863 4.0596 0.306023 -2.47254 0.131153 
-16.679 62.409 -9.1654 -6.08165 -28.0862 25.9835 3.55271e-015 5.99393 0.287273 -0.684163 8.16943 -7.04413 7.10543e-015 6.65865 -0.856112 -0.343985 16.3605 -14.2095 7.10543e-015 8.65624 -1.42685 0.478831 8.46533 12.2059 3.55271e-015 3.80999 -0.190247 11.9582 1.53125 17.1371 -1.4963 7.5744 -1.52136 0.82442 -0.104292 -6.2279 -5.47506 -0.905672 0.485692 51.5095 3.7994 44.1676 -11.3069 -0.201091 0.618544 68.952 17.6315 91.1661 -9.61414 -0.254739 3.48553 -24.8456 2.5955 15.4945 0.176263 -0.07068 1.26622 -15.6873 50.412 18.5118 -1.04683 -0.546484 1.82182 -0.515848 0.557669 -1.56015 -0.993472 -0.621916 0.655506 -4.32708 5.93882 -14.9479 -2.64253 0.566363 2.4162 -23.6212 5.47128 -14.5208 -1.39394 -0.635138 0.899356 39.8964 7.70354 -8.8173 -0.622395 -0.856016 0.402182 45.8626 8.24912 -10.4911 -3.20814 0.514427 1.52547 -0.840518 5.9495 -9.82412 -1.56545 -0.497974 0.68919 52.741 10.5331 -13.0891 -0.679943 -1.17582 0.444246 44.4809 9.78109 -10.5177 -3.47877 0.200518 0.597719 16.3706 -0.644881 -5.846 -1.28208 -0.53155 0.44672 37.8363 9.71786 -10.3213 -0.710288 -0.970167 0.4032 39.1355 9.91094 -10.7658 -3.42483 -0.278904 -0.240415 24.5433 -1.90446 -2.26371 -1.05787 -0.635999 0.156459 31.0683 9.47906 -7.89238 -0.42815 -0.754232 0.287187 30.9983 9.4635 -7.86996 1.4963 7.5744 -1.52136 9.59368 -1.84282 -19.543 5.47506 -0.905672 0.485692 -51.8065 -0.906193 -18.6454 11.3069 -0.201091 0.618544 -36.3494 33.2987 -75.8237 9.61414 -0.254739 3.48553 -39.3623 -30.0521 0.605376 -0.176263 -0.07068 1.26622 24.2782 38.4818 -35.502 1.04683 -0.546484 1.82182 -6.53366 -1.24637 -11.4587 0.993472 -0.621916 0.655506 6.45118 2.66724 11.8095 2.64253 0.566363 2.4162 -5.18975 4.48313 12.5249 1.39394 -0.635138 0.899356 -36.9452 6.74322 17.0314 0.622395 -0.856016 0.402182 -38.0065 6.76612 17.5558 3.20814 0.514427 1.52547 -1.48521 -0.68363 1.67105 1.56545 -0.497974 0.68919 -44.4869 8.35706 21.4002 0.679943 -1.17582 0.444246 -9.36101 3.19854 3.99131 3.47877 0.200518 0.597719 -8.07663 -2.63754 5.99022 1.28208 -0.53155 0.44672 -14.7811 5.15022 7.29474 0.710288 -0.970167 0.4032 -16.2801 5.55258 8.08459 3.42483 -0.278904 -0.240415 11.7678 -11.303 2.60137 1.05787 -0.635999 0.156459 -18.8961 6.8227 9.38301 0.42815 -0.754232 0.287187 -9.18831 3.76106 4.34944 -4.17848 -1.02486 0.046356 -6.11607 -67.4981 -38.5135 1.27155 -17.465 -0.237699 26.8909 63.8672 -18.6047 0.529163 -17.3815 -1.19582 11.5811 8.87543 -9.67114 -0.711591 -4.4863 4.0596 1.98076 13.8632 -0.614656 4.17848 -1.02486 0.046356 22.3996 -59.294 20.989 -1.27155 -17.465 -0.237699 150.821 82.3675 -154.619 -0.529163 -17.3815 -1.19582 -2.98693 22.9879 -12.4301 0.711591 -4.4863 4.0596 0.291294 -2.35455 0.124577 
-16.5139 62.2862 -9.1173 -6.59187 -28.3118 24.5787 3.55271e-015 5.99393 0.287273 -0.771593 8.12308 -6.67719 -3.55271e-015 6.65865 -0.856112 -0.581246 16.2803 -13.4495 0 8.65624 -1.42685 0.538627 8.70269 13.0452 0 3.80999 -0.190247 11.647 2.13952 17.5955 -1.4963 7.5744 -1.52136 1.04183 -0.274072 -6.47372 -5.47506 -0.905672 0.485692 51.2109 3.58503 43.9071 -11.3069 -0.201091 0.618544 68.7266 17.3045 91.4848 -9.61414 -0.254739 3.48553 -24.1852 1.66508 14.8098 0.176263 -0.07068 1.26622 -15.6873 50.412 18.5118 -1.04683 -0.546484 1.82182 -0.515841 0.557682 -1.56016 -0.993472 -0.621916 0.655506 -4.3271 5.93882 -14.9479 -2.64253 0.566363 2.4162 -23.6212 5.47126 -14.5208 -1.39394 -0.635138 0.899356 39.8966 7.70358 -8.81739 -0.622395 -0.856016 0.402182 45.8626 8.24912 -10.4911 -3.20814 0.514427 1.52547 -0.840538 5.94949 -9.82411 -1.56545 -0.497974 0.68919 52.741 10.533 -13.0891 -0.679943 -1.17582 0.444246 44.481 9.7811 -10.5177 -3.47877 0.200518 0.597719 16.3705 -0.644992 -5.84593 -1.28208 -0.53155 0.44672 37.8363 9.71784 -10.3213 -0.710288 -0.970167 0.4032 39.1355 9.91096 -10.7658 -3.42483 -0.278904 -0.240415 24.5433 -1.90445 -2.26372 -1.05787 -0.635999 0.156459 31.0681 9.479 -7.89232 -0.42815 -0.754232 0.287187 30.9983 9.46353 -7.86997 1.4963 7.5744 -1.52136 10.8721 -1.86055 -19.6627 5.47506 -0.905672 0.485692 -52.2974 -0.788536 -19.5471 11.3069 -0.201091 0.618544 -35.8799 33.6406 -75.8133 9.61414 -0.254739 3.48553 -38.6804 -31.068 -0.38139 -0.176263 -0.07068 1.26622 24.2782 38.4819 -35.502 1.04683 -0.546484 1.82182 -6.53342 -1.2466 -11.4592 0.993472 -0.621916 0.655506 6.45119 2.66721 11.8095 2.64253 0.566363 2.4162 -5.18975 4.48312 12.5249 1.39394 -0.635138 0.899356 -36.9452 6.74325 17.0314 0.622395 -0.856016 0.402182 -38.0065 6.76611 17.5559 3.20814 0.514427 1.52547 -1.48523 -0.683632 1.67105 1.56545 -0.497974 0.68919 -44.4869 8.35703 21.4002 0.679943 -1.17582 0.444246 -9.36103 3.198 3.99101 3.47877 0.200518 0.597719 -8.07663 -2.63755 5.99022 1.28208 -0.53155 0.44672 -14.7811 5.15023 7.29473 0.710288 -0.970167 0.4032 -16.2799 5.55221 8.08445 3.42483 -0.278904 -0.240415 11.7678 -11.303 2.60137 1.05787 -0.635999 0.156459 -18.8964 6.82279 9.38314 0.42815 -0.754232 0.287187 -9.1883 3.76105 4.34945 -4.17848 -1.02486 0.046356 -5.4457 -66.3682 -36.951 1.27155 -17.465 -0.237699 28.0686 64.4126 -19.3148 0.529163 -17.3815 -1.19582 10.0661 6.79145 -8.62083 -0.711591 -4.4863 4.0596 1.99364 13.9477 -0.620008 4.17848 -1.02486 0.046356 22.2634 -57.5093 20.2605 -1.27155 -17.465 -0.237699 144.607 83.5512 -147.812 -0.529163 -17.3815 -1.19582 -2.65952 20.0499 -12.4939 0.711591 -4.4863 4.0596 0.26959 -2.18067 0.114964 
-16.3457 62.1036 -9.0979 -7.12491 -28.6997 23.1227 7.10543e-015 5.99393 0.287273 -0.81803 8.08529 -6.27706 -3.55271e-015 6.65865 -0.856112 -0.738829 16.2112 -12.6286 -7.10543e-015 8.65624 -1.42685 0.586481 9.03778 13.8729 0 3.80999 -0.190247 11.2472 2.75923 18.0145 -1.4963 7.5744 -1.52136 1.16313 -0.348941 -6.58388 -5.47506 -0.905672 0.485692 51.1981 3.58062 43.8235 -11.3069 -0.201091 0.618544 68.6836 16.7597 91.8469 -9.61414 -0.254739 3.48553 -23.6635 1.37929 14.1122 0.176263 -0.07068 1.26622 -15.6873 50.412 18.5118 -1.04683 -0.546484 1.82182 -0.515841 0.557684 -1.56015 -0.993472 -0.621916 0.655506 -4.32709 5.93883 -14.9479 -2.64253 0.566363 2.4162 -23.6212 5.47126 -14.5208 -1.39394 -0.635138 0.899356 39.8968 7.70359 -8.81742 -0.622395 -0.856016 0.402182 45.8626 8.24914 -10.4911 -3.20814 0.514427 1.52547 -0.840557 5.9495 -9.8241 -1.56545 -0.497974 0.68919 52.741 10.5331 -13.0891 -0.679943 -1.17582 0.444246 44.481 9.78109 -10.5177 -3.47877 0.200518 0.597719 16.3705 -0.644921 -5.84596 -1.28208 -0.53155 0.44672 37.8362 9.71785 -10.3213 -0.710288 -0.970167 0.4032 39.1355 9.91095 -10.7658 -3.42483 -0.278904 -0.240415 24.5433 -1.90444 -2.26371 -1.05787 -0.635999 0.156459 31.0679 9.47896 -7.89226 -0.42815 -0.754232 0.287187 30.9983 9.46354 -7.86995 1.4963 7.5744 -1.52136 12.1306 -1.89146 -19.8475 5.47506 -0.905672 0.485692 -52.7252 -0.712378 -20.495 11.3069 -0.201091 0.618544 -35.3597 33.8176 -75.7301 9.61414 -0.254739 3.48553 -38.3544 -32.1726 -1.65759 -0.176263 -0.07068 1.26622 24.2783 38.4819 -35.5021 1.04683 -0.546484 1.82182 -6.53321 -1.24681 -11.4598 0.993472 -0.621916 0.655506 6.45119 2.66721 11.8095 2.64253 0.566363 2.4162 -5.18975 4.48312 12.5249 1.39394 -0.635138 0.899356 -36.9452 6.74323 17.0314 0.622395 -0.856016 0.402182 -38.0065 6.76609 17.5559 3.20814 0.514427 1.52547 -1.48522 -0.683643 1.67105 1.56545 -0.497974 0.68919 -44.4869 8.35706 21.4002 0.679943 -1.17582 0.444246 -9.36103 3.19742 3.99071 3.47877 0.200518 0.597719 -8.07662 -2.63755 5.99022 1.28208 -0.53155 0.44672 -14.7811 5.15023 7.29474 0.710288 -0.970167 0.4032 -16.2798 5.55182 8.08429 3.42483 -0.278904 -0.240415 11.7678 -11.303 2.60137 1.05787 -0.635999 0.156459 -18.8966 6.82282 9.38325 0.42815 -0.754232 0.287187 -9.18833 3.76105 4.34946 -4.17848 -1.02486 0.046356 -4.97053 -65.4176 -35.3698 1.27155 -17.465 -0.237699 28.9274 64.8566 -19.9308 0.529163 -17.3815 -1.19582 8.65775 5.16379 -7.56101 -0.711591 -4.4863 4.0596 2.01227 14.07 -0.627801 4.17848 -1.02486 0.046356 22.9603 -56.034 20.3524 -1.27155 -17.465 -0.237699 132.642 84.9445 -135.273 -0.529163 -17.3815 -1.19582 -2.12464 17.9246 -12.752 0.711591 -4.4863 4.0596 0.241376 -1.95412 0.102516 
